<svg xmlns="http://www.w3.org/2000/svg" viewBox="0 0 600 380" role="img" aria-label="Brain lobes lateral view">
  <rect width="600" height="380" fill="#0a0a0a"/>
  <g stroke="#0a0a0a" stroke-width="2">
    <path d="M120 180 C100 110 180 70 260 75 C320 55 420 70 460 130 L485 200 L470 270 L420 300 C360 325 240 330 180 310 C130 290 110 240 120 180 Z" fill="#1e293b" stroke-width="3" stroke="#475569"/>
    <path d="M150 160 C160 110 220 90 290 100 C250 140 220 180 230 210 C170 220 135 200 150 160 Z" fill="#3b82f6" fill-opacity="0.55"/>
    <path d="M230 210 C260 180 300 150 310 105 C370 95 420 115 440 150 C410 190 360 210 320 215 Z" fill="#a78bfa" fill-opacity="0.55"/>
    <path d="M320 215 C380 210 430 190 455 175 L480 220 L470 265 L420 290 C370 290 330 260 320 215 Z" fill="#f59e0b" fill-opacity="0.55"/>
    <path d="M140 215 C190 220 240 220 320 215 C330 260 330 300 300 315 C220 320 150 300 130 260 Z" fill="#10b981" fill-opacity="0.55"/>
  </g>
  <g stroke="#64748b" stroke-width="1">
    <line x1="200" y1="155" x2="120" y2="90"/>
    <line x1="340" y1="150" x2="390" y2="60"/>
    <line x1="440" y1="240" x2="540" y2="220"/>
    <line x1="230" y1="280" x2="120" y2="350"/>
  </g>
  <g font-family="Inter, sans-serif" font-size="13" fill="#f8fafc">
    <text x="115" y="85" text-anchor="end">Frontal lobe</text>
    <text x="115" y="100" text-anchor="end" font-size="10" fill="#93c5fd">executive · motor</text>
    <text x="395" y="55">Parietal lobe</text>
    <text x="395" y="70" font-size="10" fill="#c4b5fd">sensation · spatial</text>
    <text x="545" y="215">Occipital lobe</text>
    <text x="545" y="230" font-size="10" fill="#fcd34d">vision</text>
    <text x="115" y="355" text-anchor="end">Temporal lobe</text>
    <text x="115" y="370" text-anchor="end" font-size="10" fill="#6ee7b7">hearing · memory</text>
  </g>
</svg>
