<svg xmlns="http://www.w3.org/2000/svg" viewBox="0 0 400 400" role="img" aria-label="EEG 10-20 electrode placement">
  <rect width="400" height="400" fill="#0a0a0a"/>
  <circle cx="200" cy="200" r="160" fill="#1e293b" stroke="#475569" stroke-width="2"/>
  <path d="M200 40 L185 60 L215 60 Z" fill="#475569" stroke="#64748b"/>
  <g stroke="rgba(6, 182, 212, 0.25)" stroke-width="1" fill="none">
    <line x1="200" y1="40" x2="200" y2="360"/>
    <line x1="40" y1="200" x2="360" y2="200"/>
    <circle cx="200" cy="200" r="80"/>
  </g>
  <g font-family="Inter, sans-serif" font-size="10" font-weight="600" fill="#f8fafc" text-anchor="middle">
    <g>
      <circle cx="200" cy="72" r="15" fill="#06B6D4"/><text x="200" y="76">Fp1</text>
    </g>
    <g>
      <circle cx="170" cy="92" r="13" fill="#06B6D4" fill-opacity="0.8"/><text x="170" y="95">Fp1</text>
    </g>
    <g>
      <circle cx="230" cy="92" r="13" fill="#06B6D4" fill-opacity="0.8"/><text x="230" y="95">Fp2</text>
    </g>
    <g>
      <circle cx="140" cy="140" r="13" fill="#06B6D4" fill-opacity="0.7"/><text x="140" y="143">F7</text>
    </g>
    <g>
      <circle cx="260" cy="140" r="13" fill="#06B6D4" fill-opacity="0.7"/><text x="260" y="143">F8</text>
    </g>
    <g>
      <circle cx="175" cy="145" r="13" fill="#06B6D4" fill-opacity="0.7"/><text x="175" y="148">F3</text>
    </g>
    <g>
      <circle cx="225" cy="145" r="13" fill="#06B6D4" fill-opacity="0.7"/><text x="225" y="148">F4</text>
    </g>
    <g>
      <circle cx="200" cy="145" r="13" fill="#06B6D4" fill-opacity="0.8"/><text x="200" y="148">Fz</text>
    </g>
    <g>
      <circle cx="120" cy="200" r="13" fill="#8b5cf6" fill-opacity="0.7"/><text x="120" y="203">T3</text>
    </g>
    <g>
      <circle cx="280" cy="200" r="13" fill="#8b5cf6" fill-opacity="0.7"/><text x="280" y="203">T4</text>
    </g>
    <g>
      <circle cx="160" cy="200" r="13" fill="#8b5cf6" fill-opacity="0.7"/><text x="160" y="203">C3</text>
    </g>
    <g>
      <circle cx="240" cy="200" r="13" fill="#8b5cf6" fill-opacity="0.7"/><text x="240" y="203">C4</text>
    </g>
    <g>
      <circle cx="200" cy="200" r="15" fill="#8b5cf6"/><text x="200" y="204">Cz</text>
    </g>
    <g>
      <circle cx="140" cy="260" r="13" fill="#10b981" fill-opacity="0.7"/><text x="140" y="263">T5</text>
    </g>
    <g>
      <circle cx="260" cy="260" r="13" fill="#10b981" fill-opacity="0.7"/><text x="260" y="263">T6</text>
    </g>
    <g>
      <circle cx="175" cy="255" r="13" fill="#10b981" fill-opacity="0.7"/><text x="175" y="258">P3</text>
    </g>
    <g>
      <circle cx="225" cy="255" r="13" fill="#10b981" fill-opacity="0.7"/><text x="225" y="258">P4</text>
    </g>
    <g>
      <circle cx="200" cy="255" r="13" fill="#10b981" fill-opacity="0.8"/><text x="200" y="258">Pz</text>
    </g>
    <g>
      <circle cx="170" cy="310" r="13" fill="#f59e0b" fill-opacity="0.8"/><text x="170" y="313">O1</text>
    </g>
    <g>
      <circle cx="230" cy="310" r="13" fill="#f59e0b" fill-opacity="0.8"/><text x="230" y="313">O2</text>
    </g>
  </g>
  <g font-family="Inter, sans-serif" font-size="11" fill="#94a3b8">
    <text x="200" y="30" text-anchor="middle">Nasion (front)</text>
    <text x="200" y="385" text-anchor="middle">Inion (back)</text>
    <text x="20" y="205">Left</text>
    <text x="380" y="205">Right</text>
  </g>
</svg>
