<svg xmlns="http://www.w3.org/2000/svg" viewBox="0 0 600 300" role="img" aria-label="Neuron structure">
  <defs>
    <radialGradient id="somaGrad" cx="50%" cy="50%" r="50%">
      <stop offset="0%" stop-color="#38bdf8"/>
      <stop offset="100%" stop-color="#0369a1"/>
    </radialGradient>
  </defs>
  <rect width="600" height="300" fill="#0a0a0a"/>
  <g stroke="#06B6D4" stroke-width="2" fill="none">
    <path d="M130 150 Q90 100 70 80"/>
    <path d="M130 150 Q90 200 70 220"/>
    <path d="M130 150 Q90 130 60 140"/>
    <path d="M130 150 Q100 160 70 170"/>
    <path d="M130 150 Q95 110 50 100"/>
    <path d="M130 150 Q95 190 45 195"/>
  </g>
  <circle cx="160" cy="150" r="36" fill="url(#somaGrad)" stroke="#06B6D4" stroke-width="2"/>
  <circle cx="160" cy="150" r="10" fill="#0c4a6e"/>
  <line x1="196" y1="150" x2="440" y2="150" stroke="#06B6D4" stroke-width="6" stroke-linecap="round"/>
  <g stroke="#06B6D4" stroke-width="2" fill="none">
    <path d="M440 150 L490 120"/>
    <path d="M440 150 L510 150"/>
    <path d="M440 150 L490 180"/>
    <path d="M440 150 L470 100"/>
    <path d="M440 150 L470 200"/>
  </g>
  <circle cx="490" cy="120" r="6" fill="#f59e0b"/>
  <circle cx="510" cy="150" r="6" fill="#f59e0b"/>
  <circle cx="490" cy="180" r="6" fill="#f59e0b"/>
  <circle cx="470" cy="100" r="6" fill="#f59e0b"/>
  <circle cx="470" cy="200" r="6" fill="#f59e0b"/>
  <g font-family="Inter, sans-serif" font-size="12" fill="#f8fafc">
    <text x="55" y="260" text-anchor="middle">Dendrites</text>
    <text x="160" y="215" text-anchor="middle">Soma (cell body)</text>
    <text x="300" y="140" text-anchor="middle">Axon</text>
    <text x="490" y="245" text-anchor="middle">Axon terminals</text>
  </g>
</svg>
